<svg xmlns="http://www.w3.org/2000/svg" width="9" height="12" viewBox="0 0 9 12">
  <metadata><?xpacket begin="﻿" id="W5M0MpCehiHzreSzNTczkc9d"?>
<x:xmpmeta xmlns:x="adobe:ns:meta/" x:xmptk="Adobe XMP Core 5.6-c138 79.159824, 2016/09/14-01:09:01        ">
   <rdf:RDF xmlns:rdf="http://www.w3.org/1999/02/22-rdf-syntax-ns#">
      <rdf:Description rdf:about=""/>
   </rdf:RDF>
</x:xmpmeta>
                                                                                                    
                                                                                                    
                                                                                                    
                                                                                                    
                                                                                                    
                                                                                                    
                                                                                                    
                                                                                                    
                                                                                                    
                                                                                                    
                                                                                                    
                                                                                                    
                                                                                                    
                                                                                                    
                                                                                                    
                                                                                                    
                                                                                                    
                                                                                                    
                                                                                                    
                                                                                                    
                           
<?xpacket end="w"?></metadata>
<defs>
    <style>
      .cls-1 {
        fill: #fb565d;
        fill-rule: evenodd;
      }
    </style>
  </defs>
  <path id="close" class="cls-1" d="M2723,1202h-7a1,1,0,0,1-1-1v-5a1,1,0,0,1,1-1v-1.44a3.5,3.5,0,1,1,7,0V1195a1,1,0,0,1,1,1v5A1,1,0,0,1,2723,1202Zm-1.75-8.44a1.75,1.75,0,1,0-3.5,0V1195h3.5v-1.44Zm-1.75,3.44a1.5,1.5,0,0,1,0,3,1.475,1.475,0,0,1-1.28-.73,1.443,1.443,0,0,1-.22-0.77A1.5,1.5,0,0,1,2719.5,1197Z" transform="translate(-2715 -1190)"/>
</svg>
