<svg xmlns="http://www.w3.org/2000/svg" width="9" height="11.56" viewBox="0 0 9 11.56">
  <metadata><?xpacket begin="﻿" id="W5M0MpCehiHzreSzNTczkc9d"?>
<x:xmpmeta xmlns:x="adobe:ns:meta/" x:xmptk="Adobe XMP Core 5.6-c138 79.159824, 2016/09/14-01:09:01        ">
   <rdf:RDF xmlns:rdf="http://www.w3.org/1999/02/22-rdf-syntax-ns#">
      <rdf:Description rdf:about=""/>
   </rdf:RDF>
</x:xmpmeta>
                                                                                                    
                                                                                                    
                                                                                                    
                                                                                                    
                                                                                                    
                                                                                                    
                                                                                                    
                                                                                                    
                                                                                                    
                                                                                                    
                                                                                                    
                                                                                                    
                                                                                                    
                                                                                                    
                                                                                                    
                                                                                                    
                                                                                                    
                                                                                                    
                                                                                                    
                                                                                                    
                           
<?xpacket end="w"?></metadata>
<defs>
    <style>
      .cls-1 {
        fill: #71d36b;
        fill-rule: evenodd;
      }
    </style>
  </defs>
  <path id="open" class="cls-1" d="M2751,1202h-7a1,1,0,0,1-1-1v-5a1,1,0,0,1,1-1h0.47v-1.5a3.184,3.184,0,0,1,5.64-1.91,0.693,0.693,0,0,1-.11.99,0.74,0.74,0,0,1-1.03-.11,1.719,1.719,0,0,0-3.04,1.03v1.5H2751a1,1,0,0,1,1,1v5A1,1,0,0,1,2751,1202Zm-3.5-5a1.5,1.5,0,0,1,0,3,1.475,1.475,0,0,1-1.28-.73,1.443,1.443,0,0,1-.22-0.77A1.5,1.5,0,0,1,2747.5,1197Z" transform="translate(-2743 -1190.44)"/>
</svg>
