<svg xmlns="http://www.w3.org/2000/svg" width="163.31" height="163.81" viewBox="0 0 163.31 163.81">
  <metadata><?xpacket begin="﻿" id="W5M0MpCehiHzreSzNTczkc9d"?>
<x:xmpmeta xmlns:x="adobe:ns:meta/" x:xmptk="Adobe XMP Core 5.6-c138 79.159824, 2016/09/14-01:09:01        ">
   <rdf:RDF xmlns:rdf="http://www.w3.org/1999/02/22-rdf-syntax-ns#">
      <rdf:Description rdf:about=""/>
   </rdf:RDF>
</x:xmpmeta>
                                                                                                    
                                                                                                    
                                                                                                    
                                                                                                    
                                                                                                    
                                                                                                    
                                                                                                    
                                                                                                    
                                                                                                    
                                                                                                    
                                                                                                    
                                                                                                    
                                                                                                    
                                                                                                    
                                                                                                    
                                                                                                    
                                                                                                    
                                                                                                    
                                                                                                    
                                                                                                    
                           
<?xpacket end="w"?></metadata>
<defs>
    <style>
      .cls-1 {
        fill: #d5dadc;
        fill-rule: evenodd;
      }
    </style>
  </defs>
  <path id="waiting_for_data" class="cls-1" d="M2467.63,1494.76l-1.47,13.03-1.46,13.03a5.18,5.18,0,0,1-8.22,3.65l-10.43-7.77-10.43-7.76a5.26,5.26,0,0,1,1.01-9.01l6.49-2.88a67.9,67.9,0,0,0-47.79-30.97c-37.39-5.39-72.25,20.99-77.7,58.8a6.507,6.507,0,1,1-12.88-1.86c6.48-44.99,47.96-76.38,92.46-69.97a80.835,80.835,0,0,1,57.98,38.66l5.22-2.32A5.179,5.179,0,0,1,2467.63,1494.76Zm0.31,50.72c-6.49,44.82-47.97,76.08-92.48,69.69a80.861,80.861,0,0,1-57.99-38.5l-5.23,2.3a5.165,5.165,0,0,1-7.21-5.34l1.46-12.98,1.46-12.98a5.19,5.19,0,0,1,8.23-3.63l10.43,7.73,10.43,7.73a5.234,5.234,0,0,1-1.01,8.98l-6.49,2.86a67.939,67.939,0,0,0,47.8,30.86c37.4,5.37,72.26-20.91,77.71-58.57A6.511,6.511,0,1,1,2467.94,1545.48Z" transform="translate(-2304.69 -1452.22)"/>
</svg>
